# xmcd
#
# Track frame offsets: 
#        150
#        52177
#        105857
#        155002
#        194190
#        216465
#        251517
#        298282
#
# Disc length: 4346 seconds
#
# Revision: 1
# Processed by: cddbd v1.5.2PL0 Copyright (c) Steve Scherf et al.
# Submitted via: ExactAudioCopy v0.99pb4
#
DISCID=8310f808
DTITLE=Billy Cobham - Mississippi Knights Live
DYEAR=1998
DGENRE=Jazz
TTITLE0=Alfa Waves
TTITLE1=Fragoloino
TTITLE2=Mushi Creole Blues
TTITLE3=Hop The Bop
TTITLE4=Stratus
TTITLE5=Red Baron
TTITLE6=Egg Shells Still On My Head
TTITLE7=Taurian Matador
EXTD=
EXTT0=
EXTT1=
EXTT2=
EXTT3=
EXTT4=
EXTT5=
EXTT6=
EXTT7=
PLAYORDER=
